<svg xmlns="http://www.w3.org/2000/svg" viewBox="0 0 24 24"><defs><style>.cls-1{fill:none;opacity:0;}.cls-2{fill:#fff;}</style></defs><g id="图层_2" data-name="图层 2"><g id="图层_1-2" data-name="图层 1"><rect class="cls-1" width="24" height="24"/><path class="cls-2" d="M13.05,13.71l-2.32-.4L10.36,13,7.65,7.73l.74-.65,4.93,3.36.22.39.1,2.35Z"/><path class="cls-2" d="M14.39,22.36a10.49,10.49,0,0,1-2.39.27,10.63,10.63,0,1,1,10.09-14l-1.15.59A9.36,9.36,0,1,0,12,21.36c.31,0,.62,0,.92-.05Z"/><polygon class="cls-2" points="13.13 15.57 12.56 17.15 10 16.72 13.02 18.88 24 9.95 13.13 15.57"/><polygon class="cls-2" points="13.49 19.21 20.19 24 17.35 19.42 23.22 11.22 13.49 19.21"/></g></g></svg>